<svg width="366" height="84" viewBox="0 0 366 84" fill="none" xmlns="http://www.w3.org/2000/svg">
<path d="M5.21844 12.2855C25.0188 13.334 45.1819 11.8725 64.0754 5.48917L79.6887 21.2356C79.6887 21.2356 79.6786 37.6178 79.6786 39.3491C78.2256 40.8311 76.749 42.2981 75.2759 43.737L80.978 49.4879V71.3804C61.0119 78.3275 39.605 79.8732 18.6358 78.4917L3.02258 62.7351L3.03267 44.6319C5.62116 43.042 8.18985 41.4201 10.7378 39.7649L5.20836 34.1883C5.20836 14.5337 5.21844 12.2855 5.21844 12.2855Z" fill="#0D0D0D"/>
<path d="M73.6348 29.2004V37.9777C63.8941 47.3443 54.1534 55.5121 44.4229 62.7961C54.5967 62.1155 64.7603 60.4799 74.9442 57.5135C74.9442 60.7542 74.9442 63.9848 74.9442 67.2255C60.9023 71.3297 46.8706 72.8841 32.8388 72.8841C30.1191 72.8841 27.3994 72.8231 24.6797 72.7113V63.9339C34.4203 57.6861 44.161 50.7882 53.8916 42.8947C46.8908 43.7988 39.8899 44.1849 32.8891 44.1849C30.8745 44.1849 28.87 44.1544 26.8554 44.0934C26.8554 40.8527 26.8554 37.6221 26.8554 34.3814C28.8498 34.4424 30.8343 34.4728 32.8288 34.4728C46.4274 34.4728 60.026 33.0201 73.6247 29.1902L73.6348 29.2004Z" fill="white"/>
<path d="M169.46 61.5093V50.2454H140.38L167.546 33.2392V22.4907H119.914V33.7546H145.166L118 50.7608V61.5093H169.46Z" fill="#0D0D0D"/>
<path d="M226.982 48.9203H210.344C208.871 51.1289 206.957 51.8651 199.669 51.8651C191.644 51.8651 188.847 51.0553 188.626 44.6503H227.276V40.6748C227.276 26.0981 218.589 21.7545 199.963 21.7545H198.785C180.159 21.7545 172.061 26.0981 172.061 40.6748V43.3252C172.061 57.9019 180.159 62.2455 198.785 62.2455H200.11C219.031 62.2455 224.847 58.5645 226.982 48.9203ZM199.669 31.1779C207.399 31.1779 210.712 32.3558 210.712 37.0675V37.3619H188.699C189.215 31.9877 192.307 31.1779 199.669 31.1779Z" fill="#0D0D0D"/>
<path d="M285.12 61.5093V38.3926C285.12 25.6564 279.746 21.7545 260.605 21.7545H259.206C240.801 21.7545 235.132 26.2453 232.408 34.4171H249.636C250.813 32.2085 252.728 31.2515 258.912 31.2515C266.2 31.2515 268.556 32.3558 268.556 36.8466V37.4356L244.556 38.2454C236.016 38.5399 230.715 41.411 230.715 49.0675V49.6565C230.715 57.9756 236.31 62.2455 249.783 62.2455C260.679 62.2455 266.126 59.5216 268.114 54.589H268.556V61.5093H285.12ZM247.427 49.362V49.0675C247.427 46.7853 249.047 45.8282 253.096 45.681L268.556 45.1657V45.681C268.556 50.5399 263.623 53.3375 255.525 53.3375C249.635 53.3375 247.427 52.2332 247.427 49.362Z" fill="#0D0D0D"/>
<path d="M306.473 61.5093V9.97528H289.909V61.5093H306.473Z" fill="#0D0D0D"/>
<path d="M339.129 74.0247L366 22.4907H349.067L338.466 45.681H337.951L326.908 22.4907H309.092L329.043 61.7302L321.754 74.0247H339.129Z" fill="#0D0D0D"/>
</svg>
