<?xml version="1.0" encoding="UTF-8"?>
<svg width="24px" height="29px" viewBox="0 0 24 29" version="1.1" xmlns="http://www.w3.org/2000/svg" xmlns:xlink="http://www.w3.org/1999/xlink">
    <title>Icon</title>
    <defs>
        <path d="M12,9.45553846 L5.80984615,22.764 C5.60538462,23.1904615 5.49923077,23.5366154 5.04923077,23.5366154 L0.960461538,23.5384615 C0.374307692,23.5384615 0.0512307692,23.3856923 0.335538462,22.7658462 L10.3338462,0.974769231 C10.5378462,0.612461538 10.6647692,0.346153846 11.1152308,0.346153846 L12.8852308,0.346153846 C13.3352308,0.346153846 13.4621538,0.612461538 13.6666154,0.974769231 L23.664,22.7658462 C23.9492308,23.3856923 23.6256923,23.5384615 23.0395385,23.5384615 L18.9507692,23.5366154 C18.5007692,23.5366154 18.3946154,23.1904615 18.1901538,22.764 L12,9.45553846 L12,9.45553846 Z" id="path-1"></path>
    </defs>
    <g id="Icon" stroke="none" stroke-width="1" fill="none" fill-rule="evenodd">
        <polygon id="Clip-2" fill="#32FFFF" points="12 28.3846154 8.53846154 21.4615385 15.4615385 21.4615385"></polygon>
        <mask id="mask-2" fill="white">
            <use xlink:href="#path-1"></use>
        </mask>
        <use id="Clip-5" fill="#FFFFFF" xlink:href="#path-1"></use>
    </g>
</svg>